*
G04 Mass Parameters ***
*
G04 Image ***
*
%INZ:\DESENVOLVIMENTO\NIXIE_CLOCK\HARDWARE\NIXIE_V2.SMT*%
%ICAS*%
%MOIN*%
%IPPOS*%
%ASAXBY*%
G74*%FSLAN2X34Y34*%
*
G04 Aperture Definitions ***
*
%ADD10C,0.1181*%
%ADD11C,0.0520*%
%ADD12R,0.0520X0.0520*%
%ADD13R,0.0560X0.0820*%
%ADD14C,0.0400*%
%ADD15C,0.3150*%
%ADD16R,0.1300X0.1600*%
%ADD17R,0.1600X0.1300*%
%ADD18C,0.0580*%
%ADD19R,0.0580X0.0580*%
%ADD20C,0.0600*%
%ADD21R,0.0630X0.0630*%
%ADD22R,0.1140X0.2130*%
%ADD23C,0.0750*%
%ADD24R,0.0750X0.0750*%
%ADD25C,0.0450*%
%ADD26R,0.4200X0.3300*%
%ADD27R,0.0400X0.1200*%
%ADD28R,0.0750X0.0250*%
%ADD29C,0.0708*%
%ADD30C,0.0100*%
%ADD31C,0.0180*%
%ADD32C,0.0120*%
%ADD33C,0.0220*%
%ADD34R,0.0472X0.0590*%
%ADD35C,0.1260*%
%ADD36C,0.0420*%
%ADD37C,0.3300*%
%ADD38R,0.1400X0.1700*%
%ADD39R,0.1700X0.1400*%
%ADD40C,0.0650*%
%ADD41R,0.0680X0.0680*%
%ADD42R,0.1180X0.2180*%
%ADD43R,0.4240X0.3340*%
%ADD44R,0.0440X0.1240*%
%ADD45R,0.0800X0.0300*%
%ADD46C,0.0787*%
%ADD47R,0.0551X0.0669*%
%ADD48C,0.0050*%
%ADD49C,0.0080*%
%ADD50C,0.0079*%
%ADD51C,0.0060*%
%ADD52C,0.0098*%
%ADD53C,0.0010*%
%ADD54C,0.0030*%
%ADD55C,0.0350*%
*
G04 Plot Data ***
*
G54D11*
X0058200Y0016000D03*
X0059200D03*
X0001800Y0011400D03*
X0065400Y0015700D03*
X0064400D03*
X0037300Y0016100D03*
X0036300D03*
X0031200Y0015900D03*
X0030200D03*
X0091400Y0004800D03*
X0085100Y0011300D03*
G54D12*
X0002800Y0011400D03*
X0091400Y0006300D03*
X0086100Y0011300D03*
G54D13*
X0087000Y0008800D03*
X0085500D03*
G54D18*
X0082300Y0015200D03*
X0081300D03*
X0080300D03*
X0079300D03*
X0078300D03*
X0077300D03*
X0076300D03*
Y0012200D03*
X0077300D03*
X0078300D03*
X0079300D03*
X0080300D03*
X0081300D03*
X0082300D03*
X0083300D03*
X0073400Y0015200D03*
X0072400D03*
X0071400D03*
X0070400D03*
X0069400D03*
X0068400D03*
X0067400D03*
Y0012200D03*
X0068400D03*
X0069400D03*
X0070400D03*
X0071400D03*
X0072400D03*
X0073400D03*
X0074400D03*
X0054100Y0015400D03*
X0053100D03*
X0052100D03*
X0051100D03*
X0050100D03*
X0049100D03*
X0048100D03*
Y0012400D03*
X0049100D03*
X0050100D03*
X0051100D03*
X0052100D03*
X0053100D03*
X0054100D03*
X0055100D03*
X0045300Y0015400D03*
X0044300D03*
X0043300D03*
X0042300D03*
X0041300D03*
X0040300D03*
X0039300D03*
Y0012400D03*
X0040300D03*
X0041300D03*
X0042300D03*
X0043300D03*
X0044300D03*
X0045300D03*
X0046300D03*
X0025400Y0015200D03*
X0024400D03*
X0023400D03*
X0022400D03*
X0021400D03*
X0020400D03*
X0019400D03*
Y0012200D03*
X0020400D03*
X0021400D03*
X0022400D03*
X0023400D03*
X0024400D03*
X0025400D03*
X0026400D03*
X0016000Y0015200D03*
X0015000D03*
X0014000D03*
X0013000D03*
X0012000D03*
X0011000D03*
X0010000D03*
Y0012200D03*
X0011000D03*
X0012000D03*
X0013000D03*
X0014000D03*
X0015000D03*
X0016000D03*
X0017000D03*
X0060700Y0006000D03*
Y0007000D03*
Y0008000D03*
Y0009000D03*
Y0010000D03*
Y0011000D03*
Y0012000D03*
X0057700D03*
Y0011000D03*
Y0010000D03*
Y0009000D03*
Y0008000D03*
Y0007000D03*
Y0006000D03*
Y0005000D03*
X0062500Y0012900D03*
Y0011900D03*
Y0010900D03*
Y0009900D03*
Y0008900D03*
Y0007900D03*
Y0006900D03*
X0065500D03*
Y0007900D03*
Y0008900D03*
Y0009900D03*
Y0010900D03*
Y0011900D03*
Y0012900D03*
Y0013900D03*
X0034300Y0013600D03*
Y0012600D03*
Y0011600D03*
Y0010600D03*
Y0009600D03*
Y0008600D03*
Y0007600D03*
X0037300D03*
Y0008600D03*
Y0009600D03*
Y0010600D03*
Y0011600D03*
Y0012600D03*
Y0013600D03*
Y0014600D03*
X0028300Y0013500D03*
Y0012500D03*
Y0011500D03*
Y0010500D03*
Y0009500D03*
Y0008500D03*
Y0007500D03*
X0031300D03*
Y0008500D03*
Y0009500D03*
Y0010500D03*
Y0011500D03*
Y0012500D03*
Y0013500D03*
Y0014500D03*
X0083100Y0000900D03*
X0082100Y0001900D03*
Y0000900D03*
X0081100Y0001900D03*
Y0000900D03*
X0080100Y0001900D03*
Y0000900D03*
X0079100Y0001900D03*
X0078100D03*
Y0000900D03*
X0077100Y0001900D03*
Y0000900D03*
X0076100Y0001900D03*
Y0000900D03*
X0075100Y0001900D03*
Y0000900D03*
X0074100Y0001900D03*
X0073100D03*
Y0000900D03*
X0072100Y0001900D03*
Y0000900D03*
X0071100Y0001900D03*
Y0000900D03*
X0070100Y0001900D03*
Y0000900D03*
X0069100Y0001900D03*
X0068100D03*
Y0000900D03*
X0067100Y0001900D03*
Y0000900D03*
X0066100Y0001900D03*
Y0000900D03*
X0065100Y0001900D03*
Y0000900D03*
X0064100Y0001900D03*
X0029000Y0005700D03*
X0042100Y0001000D03*
X0044900Y0001900D03*
X0007600Y0016000D03*
X0006300Y0001000D03*
G54D19*
X0083300Y0015200D03*
X0074400D03*
X0055100Y0015400D03*
X0046300D03*
X0026400Y0015200D03*
X0017000D03*
X0060700Y0005000D03*
X0062500Y0013900D03*
X0034300Y0014600D03*
X0028300Y0014500D03*
X0083100Y0001900D03*
X0079100Y0000900D03*
X0074100D03*
X0069100D03*
X0064100D03*
X0028000Y0005700D03*
X0042100Y0002000D03*
X0044900Y0000900D03*
X0006600Y0016000D03*
X0007300Y0001000D03*
G54D23*
X0017600Y0002400D03*
Y0003400D03*
X0006400Y0006200D03*
X0005400D03*
X0023400Y0002400D03*
Y0003400D03*
X0006400Y0009500D03*
X0005400D03*
X0006600Y0013800D03*
X0005600D03*
X0038000Y0002400D03*
Y0003400D03*
G54D24*
X0017600Y0001400D03*
X0007400Y0006200D03*
X0023400Y0001400D03*
X0007400Y0009500D03*
X0007600Y0013800D03*
X0038000Y0001400D03*
G54D25*
X0077000Y0005400D03*
Y0008400D03*
X0074900Y0004800D03*
Y0007800D03*
X0046500Y0004600D03*
Y0007600D03*
X0016200Y0005100D03*
Y0008100D03*
X0018000Y0005100D03*
Y0008100D03*
X0026300Y0003800D03*
Y0006800D03*
X0002400Y0006000D03*
Y0009000D03*
X0050900Y0003000D03*
X0047900D03*
X0007600D03*
X0004600D03*
X0013900Y0003600D03*
X0010900D03*
X0029100Y0001200D03*
Y0004200D03*
X0033900Y0001200D03*
X0030900D03*
X0034700Y0005500D03*
X0031700D03*
X0030900Y0002800D03*
X0033900D03*
X0008000Y0011900D03*
X0005000D03*
X0050800Y0000900D03*
X0047800D03*
X0041900Y0003500D03*
X0044900D03*
G54D35*
X0055600Y0010100D03*
Y0002226D03*
G54D36*
X0080869Y0007765D03*
Y0008265D03*
Y0008765D03*
Y0009265D03*
X0070997Y0007765D03*
Y0008265D03*
Y0008765D03*
Y0009265D03*
X0051409Y0007765D03*
Y0008265D03*
Y0008765D03*
Y0009265D03*
X0041615Y0007765D03*
Y0008265D03*
Y0008765D03*
Y0009265D03*
X0021948Y0007765D03*
Y0008265D03*
Y0008765D03*
Y0009265D03*
X0012075Y0007765D03*
Y0008265D03*
Y0008765D03*
Y0009265D03*
G54D37*
X0002000Y0002000D03*
X0091100D03*
Y0015100D03*
X0001927Y0015065D03*
G54D38*
X0085010Y0014680D03*
G54D39*
X0086900Y0013700D03*
Y0016060D03*
G54D40*
X0011000Y0001000D03*
X0010000D03*
G54D41*
X0012000D03*
G54D42*
X0088500Y0009900D03*
X0092000D03*
G54D43*
X0086860Y0002380D03*
G54D44*
X0088200Y0006400D03*
X0087530D03*
X0086860D03*
X0086190D03*
X0085520D03*
G54D45*
X0058175Y0014950D03*
Y0014450D03*
Y0013950D03*
Y0013450D03*
X0060425D03*
Y0013950D03*
Y0014450D03*
Y0014950D03*
G54D46*
X0081899Y0010434D03*
X0082714Y0009633D03*
X0082995Y0008550D03*
X0082714Y0007467D03*
X0081899Y0006665D03*
X0080830Y0006385D03*
X0079761Y0006665D03*
X0078945Y0007467D03*
X0078665Y0008550D03*
X0078945Y0009633D03*
X0079761Y0010434D03*
X0072065D03*
X0072881Y0009633D03*
X0073162Y0008550D03*
X0072881Y0007467D03*
X0072065Y0006665D03*
X0070997Y0006385D03*
X0069928Y0006665D03*
X0069112Y0007467D03*
X0068831Y0008550D03*
X0069112Y0009633D03*
X0069928Y0010434D03*
X0052477D03*
X0053293Y0009633D03*
X0053574Y0008550D03*
X0053293Y0007467D03*
X0052477Y0006665D03*
X0051409Y0006385D03*
X0050340Y0006665D03*
X0049524Y0007467D03*
X0049243Y0008550D03*
X0049524Y0009633D03*
X0050340Y0010434D03*
X0042683D03*
X0043499Y0009633D03*
X0043780Y0008550D03*
X0043499Y0007467D03*
X0042683Y0006665D03*
X0041615Y0006385D03*
X0040546Y0006665D03*
X0039730Y0007467D03*
X0039449Y0008550D03*
X0039730Y0009633D03*
X0040546Y0010434D03*
X0023017D03*
X0023832Y0009633D03*
X0024113Y0008550D03*
X0023832Y0007467D03*
X0023017Y0006665D03*
X0021948Y0006385D03*
X0020879Y0006665D03*
X0020063Y0007467D03*
X0019783Y0008550D03*
X0020063Y0009633D03*
X0020879Y0010434D03*
X0013144D03*
X0013960Y0009633D03*
X0014240Y0008550D03*
X0013960Y0007467D03*
X0013144Y0006665D03*
X0012075Y0006385D03*
X0011007Y0006665D03*
X0010191Y0007467D03*
X0009910Y0008550D03*
X0010191Y0009633D03*
X0011007Y0010434D03*
M02*
