*
G04 Mass Parameters ***
*
G04 Image ***
*
%INZ:\DESENVOLVIMENTO\NIXIE_CLOCK\HARDWARE\NIXIE_V2.SST*%
%ICAS*%
%MOIN*%
%IPPOS*%
%ASAXBY*%
G74*%FSLAN2X34Y34*%
*
G04 Aperture Definitions ***
*
%ADD10C,0.1181*%
%ADD11C,0.0520*%
%ADD12R,0.0520X0.0520*%
%ADD13R,0.0560X0.0820*%
%ADD14C,0.0400*%
%ADD15C,0.3150*%
%ADD16R,0.1300X0.1600*%
%ADD17R,0.1600X0.1300*%
%ADD18C,0.0580*%
%ADD19R,0.0580X0.0580*%
%ADD20C,0.0600*%
%ADD21R,0.0630X0.0630*%
%ADD22R,0.1140X0.2130*%
%ADD23C,0.0750*%
%ADD24R,0.0750X0.0750*%
%ADD25C,0.0450*%
%ADD26R,0.4200X0.3300*%
%ADD27R,0.0400X0.1200*%
%ADD28R,0.0750X0.0250*%
%ADD29C,0.0708*%
%ADD30C,0.0100*%
%ADD31C,0.0180*%
%ADD32C,0.0120*%
%ADD33C,0.0220*%
%ADD34R,0.0472X0.0590*%
%ADD35C,0.1260*%
%ADD36C,0.0420*%
%ADD37C,0.3300*%
%ADD38R,0.1400X0.1700*%
%ADD39R,0.1700X0.1400*%
%ADD40C,0.0650*%
%ADD41R,0.0680X0.0680*%
%ADD42R,0.1180X0.2180*%
%ADD43R,0.4240X0.3340*%
%ADD44R,0.0440X0.1240*%
%ADD45R,0.0800X0.0300*%
%ADD46C,0.0787*%
%ADD47R,0.0551X0.0669*%
%ADD48C,0.0050*%
%ADD49C,0.0080*%
%ADD50C,0.0079*%
%ADD51C,0.0060*%
%ADD52C,0.0098*%
%ADD53C,0.0010*%
%ADD54C,0.0030*%
%ADD55C,0.0350*%
*
G04 Plot Data ***
*
G54D30*
G01X0088900Y0013700D02*
X0084900D01*
Y0019200D01*
X0088900D01*
Y0013700D01*
G01X0070997Y0007397D02*
G03X0072115Y0008515I0000000J0001118D01*
G01X0069879D02*
G03X0070997Y0007397I0001118J0000000D01*
Y0009633D02*
G03X0069879Y0008515I0000000J0001118D01*
G01X0072115D02*
G03X0070997Y0009633I0001118J0000000D01*
G01X0080869Y0007397D02*
G03X0081987Y0008515I0000000J0001118D01*
G01X0079751D02*
G03X0080869Y0007397I0001118J0000000D01*
Y0009633D02*
G03X0079751Y0008515I0000000J0001118D01*
G01X0081987D02*
G03X0080869Y0009633I0001118J0000000D01*
G01X0051409Y0007397D02*
G03X0052527Y0008515I0000000J0001118D01*
G01X0050291D02*
G03X0051409Y0007397I0001118J0000000D01*
Y0009633D02*
G03X0050291Y0008515I0000000J0001118D01*
G01X0052527D02*
G03X0051409Y0009633I0001118J0000000D01*
G01X0041615Y0007397D02*
G03X0042733Y0008515I0000000J0001118D01*
G01X0040497D02*
G03X0041615Y0007397I0001118J0000000D01*
Y0009633D02*
G03X0040497Y0008515I0000000J0001118D01*
G01X0042733D02*
G03X0041615Y0009633I0001118J0000000D01*
G01X0012075Y0007397D02*
G03X0013193Y0008515I0000000J0001118D01*
G01X0010957D02*
G03X0012075Y0007397I0001118J0000000D01*
Y0009633D02*
G03X0010957Y0008515I0000000J0001118D01*
G01X0013193D02*
G03X0012075Y0009633I0001118J0000000D01*
G01X0021948Y0007397D02*
G03X0023066Y0008515I0000000J0001118D01*
G01X0020830D02*
G03X0021948Y0007397I0001118J0000000D01*
Y0009633D02*
G03X0020830Y0008515I0000000J0001118D01*
G01X0023066D02*
G03X0021948Y0009633I0001118J0000000D01*
G54D48*
G01X0000249Y0002042D02*
G03X0000250Y0002000I0001709J0000000D01*
G01X0001958Y0003751D02*
G03X0000249Y0002042I0000000J0001709D01*
G01X0002000Y0003750D02*
G03X0001958Y0003751I0000042J0001708D01*
G01X0002042D02*
G03X0002000Y0003750I0000000J0001709D01*
G01X0003751Y0002042D02*
G03X0002042Y0003751I0001709J0000000D01*
G01X0003750Y0002000D02*
G03X0003751Y0002042I0001708J0000042D01*
Y0001958D02*
G03X0003750Y0002000I0001709J0000000D01*
G01X0002042Y0000249D02*
G03X0003751Y0001958I0000000J0001709D01*
G01X0002000Y0000250D02*
G03X0002042Y0000249I0000042J0001708D01*
G01X0001958D02*
G03X0002000Y0000250I0000000J0001709D01*
G01X0000249Y0001958D02*
G03X0001958Y0000249I0001709J0000000D01*
G01X0000250Y0002000D02*
G03X0000249Y0001958I0001708J0000042D01*
G01X0089349Y0002042D02*
G03X0089350Y0002000I0001709J0000000D01*
G01X0091058Y0003751D02*
G03X0089349Y0002042I0000000J0001709D01*
G01X0091100Y0003750D02*
G03X0091058Y0003751I0000042J0001708D01*
G01X0091142D02*
G03X0091100Y0003750I0000000J0001709D01*
G01X0092851Y0002042D02*
G03X0091142Y0003751I0001709J0000000D01*
G01X0092850Y0002000D02*
G03X0092851Y0002042I0001708J0000042D01*
Y0001958D02*
G03X0092850Y0002000I0001709J0000000D01*
G01X0091142Y0000249D02*
G03X0092851Y0001958I0000000J0001709D01*
G01X0091100Y0000250D02*
G03X0091142Y0000249I0000042J0001708D01*
G01X0091058D02*
G03X0091100Y0000250I0000000J0001709D01*
G01X0089349Y0001958D02*
G03X0091058Y0000249I0001709J0000000D01*
G01X0089350Y0002000D02*
G03X0089349Y0001958I0001708J0000042D01*
Y0015142D02*
G03X0089350Y0015100I0001709J0000000D01*
G01X0091058Y0016851D02*
G03X0089349Y0015142I0000000J0001709D01*
G01X0091100Y0016850D02*
G03X0091058Y0016851I0000042J0001708D01*
G01X0091142D02*
G03X0091100Y0016850I0000000J0001709D01*
G01X0092851Y0015142D02*
G03X0091142Y0016851I0001709J0000000D01*
G01X0092850Y0015100D02*
G03X0092851Y0015142I0001708J0000042D01*
Y0015058D02*
G03X0092850Y0015100I0001709J0000000D01*
G01X0091142Y0013349D02*
G03X0092851Y0015058I0000000J0001709D01*
G01X0091100Y0013350D02*
G03X0091142Y0013349I0000042J0001708D01*
G01X0091058D02*
G03X0091100Y0013350I0000000J0001709D01*
G01X0089349Y0015058D02*
G03X0091058Y0013349I0001709J0000000D01*
G01X0089350Y0015100D02*
G03X0089349Y0015058I0001708J0000042D01*
G01X0000177Y0015106D02*
G03X0000177Y0015065I0001709J0000000D01*
G01X0001886Y0016815D02*
G03X0000177Y0015106I0000000J0001709D01*
G01X0001927Y0016815D02*
G03X0001886Y0016815I0000041J0001709D01*
G01X0001969Y0016814D02*
G03X0001927Y0016815I0000000J0001708D01*
G01X0003677Y0015106D02*
G03X0001969Y0016814I0001708J0000000D01*
G01X0003677Y0015065D02*
G03X0003677Y0015106I0001708J0000041D01*
G01X0003678Y0015023D02*
G03X0003677Y0015065I0001709J0000000D01*
G01X0001969Y0013314D02*
G03X0003678Y0015023I0000000J0001709D01*
G01X0001927Y0013315D02*
G03X0001969Y0013314I0000042J0001708D01*
G01X0001886Y0013313D02*
G03X0001927Y0013315I0000000J0001710D01*
G01X0000176Y0015023D02*
G03X0001886Y0013313I0001710J0000000D01*
G01X0000177Y0015065D02*
G03X0000176Y0015023I0001709J0000042D01*
G54D49*
G01X0046913Y0000433D02*
Y0000600D01*
X0047024Y0000767D02*
X0046940Y0000600D01*
X0046885D01*
X0046801Y0000767D01*
X0046614Y0000544D02*
X0046391D01*
X0046614Y0000433D02*
Y0000600D01*
X0046530Y0000767D01*
X0046475D01*
X0046391Y0000600D01*
Y0000433D01*
X0046009D02*
Y0000767D01*
X0045981Y0000433D02*
X0046148D01*
X0046204Y0000544D01*
Y0000655D01*
X0046148Y0000767D01*
X0045981D01*
X0045794D02*
Y0000489D01*
X0045766Y0000433D01*
X0045683Y0000600D01*
Y0000655D02*
Y0000600D01*
X0045599Y0000433D01*
X0045571Y0000489D01*
Y0000767D01*
X0041201Y0000900D02*
X0041368D01*
X0041424Y0000955D01*
Y0001011D01*
X0041368Y0001067D01*
X0041201D01*
Y0000733D01*
X0041014D02*
Y0001067D01*
X0040958Y0001011D01*
X0040903Y0000900D01*
X0040847Y0001011D01*
X0040791Y0001067D01*
Y0000733D01*
X0040548Y0000900D02*
X0040381D01*
X0040604Y0000733D02*
X0040381D01*
Y0001067D01*
X0040604D01*
X0040083Y0000733D02*
Y0001067D01*
X0040194D02*
X0039971D01*
X0012116Y0001661D02*
X0012005Y0001439D01*
X0011894Y0001661D01*
X0011706Y0001439D02*
X0011595D01*
X0011651D02*
Y0001772D01*
X0011595D01*
X0011213Y0001661D02*
X0011324D01*
X0011352Y0001605D01*
Y0001494D01*
X0011380Y0001439D01*
X0011185D01*
X0011158Y0001494D01*
X0011185Y0001550D01*
X0011352D01*
X0010970Y0001772D02*
Y0001661D01*
X0010859Y0001439D01*
X0010748Y0001661D01*
Y0001772D01*
X0010560Y0001605D02*
X0010338D01*
X0010039Y0001439D02*
Y0001772D01*
X0010150D02*
X0009928D01*
X0007724Y0001861D02*
X0007557D01*
X0007751Y0001639D02*
X0007640D01*
X0007613Y0001694D01*
X0007612D02*
X0007613Y0001972D01*
X0007341Y0001861D02*
Y0001639D01*
X0007369D02*
X0007175D01*
X0007147Y0001694D01*
Y0001861D01*
X0006765Y0001639D02*
X0006737Y0001694D01*
Y0001917D01*
X0006765Y0001972D01*
X0006931D01*
X0006959Y0001917D01*
Y0001694D01*
X0006931Y0001639D01*
X0006765D01*
X0006014Y0001972D02*
Y0001861D01*
X0005903Y0001639D01*
X0005792Y0001861D01*
Y0001972D01*
X0005604Y0001639D02*
X0005382D01*
X0005604Y0001861D01*
Y0001917D01*
X0005576Y0001972D01*
X0005410D01*
X0005382Y0001917D01*
X0005194Y0001639D02*
X0005083D01*
X0005139D02*
Y0001972D01*
X0005083Y0001917D01*
X0008960Y0016572D02*
Y0016461D01*
X0008849Y0016239D01*
X0008738Y0016461D01*
Y0016572D01*
X0008550Y0016405D02*
X0008328D01*
X0008550Y0016239D02*
Y0016572D01*
X0008328Y0016239D02*
Y0016572D01*
X0090332Y0013144D02*
X0090110D01*
X0090332Y0013033D02*
Y0013200D01*
X0090249Y0013367D01*
X0090193D01*
X0090110Y0013200D01*
Y0013033D01*
X0089922D02*
X0089811D01*
X0089867D02*
Y0013367D01*
X0089811Y0013311D01*
X0089568Y0013200D02*
X0089346D01*
X0089158Y0013367D02*
Y0013255D01*
X0089047Y0013033D01*
X0088936Y0013255D01*
Y0013367D01*
X0088748Y0013033D02*
X0088526D01*
X0088748Y0013255D01*
Y0013311D01*
X0088720Y0013367D01*
X0088554D01*
X0088526Y0013311D01*
X0088338Y0013033D02*
X0088227D01*
X0088283D02*
Y0013367D01*
X0088227Y0013311D01*
X0029014Y0006611D02*
X0028986Y0006667D01*
X0028819D01*
X0028791Y0006611D01*
Y0006555D01*
X0028819Y0006500D01*
X0028986D01*
X0029014Y0006444D01*
Y0006389D01*
X0028986Y0006333D01*
X0028819D01*
X0028791Y0006389D01*
X0028604Y0006333D02*
Y0006667D01*
X0028548Y0006611D01*
X0028493Y0006500D01*
X0028437Y0006611D01*
X0028381Y0006667D01*
Y0006333D01*
X0028194Y0006500D02*
X0027971D01*
X0028194Y0006333D02*
Y0006667D01*
X0027971Y0006333D02*
Y0006667D01*
X0005615Y0016138D02*
X0005643Y0016083D01*
X0005810D01*
X0005838Y0016138D01*
Y0016249D01*
X0005782Y0016305D01*
X0005615D01*
Y0016416D01*
X0005838D01*
X0005233Y0016194D02*
Y0016138D01*
X0005261Y0016083D01*
X0005372D01*
X0005400Y0016138D01*
Y0016416D01*
X0005428D02*
X0005316D01*
X0015462Y0006496D02*
X0015517Y0006524D01*
Y0006691D01*
X0015462Y0006719D01*
X0015351D01*
X0015295Y0006663D01*
Y0006496D01*
X0015184D01*
Y0006719D01*
X0015517Y0006309D02*
Y0006198D01*
Y0006253D02*
X0015184D01*
X0015239Y0006198D01*
X0015351Y0005871D02*
X0015517Y0005954D01*
X0015351Y0005732D02*
Y0005899D01*
X0015295Y0005954D01*
X0015239D01*
X0015184Y0005899D01*
Y0005732D01*
X0015517D01*
X0048454Y0003595D02*
X0048343D01*
X0048399D02*
Y0003928D01*
X0048343Y0003873D01*
X0048100Y0003595D02*
X0047989D01*
X0048044D02*
Y0003928D01*
X0047989Y0003873D01*
X0047662Y0003762D02*
X0047745Y0003595D01*
X0047523Y0003762D02*
X0047690D01*
X0047745Y0003817D01*
Y0003873D01*
X0047690Y0003928D01*
X0047523D01*
Y0003595D01*
X0004677Y0007501D02*
X0004705Y0007445D01*
X0004872D01*
X0004899Y0007501D01*
Y0007612D01*
X0004844Y0007667D01*
X0004677D01*
Y0007778D01*
X0004899D01*
X0004378Y0007556D02*
X0004489Y0007445D01*
X0004267Y0007501D02*
X0004295Y0007445D01*
X0004406D01*
X0004434Y0007501D01*
X0004489Y0007556D01*
Y0007723D01*
X0004462Y0007778D01*
X0004295D01*
X0004267Y0007723D01*
Y0007501D01*
X0001670Y0008843D02*
X0001448D01*
X0001670Y0009065D01*
Y0009121D01*
X0001643Y0009177D01*
X0001476D01*
X0001448Y0009121D01*
X0001260Y0008843D02*
X0001149D01*
X0001205D02*
Y0009177D01*
X0001149Y0009121D01*
X0000823Y0009010D02*
X0000906Y0008843D01*
X0000684Y0009010D02*
X0000850D01*
X0000906Y0009065D01*
Y0009121D01*
X0000850Y0009177D01*
X0000684D01*
Y0008843D01*
X0031942Y0003538D02*
X0031970Y0003483D01*
X0032137D01*
X0032164Y0003538D01*
Y0003649D01*
X0032109Y0003705D01*
X0031942D01*
Y0003816D01*
X0032164D01*
X0031671Y0003649D02*
X0031754Y0003483D01*
X0031532Y0003649D02*
X0031699D01*
X0031754Y0003705D01*
Y0003760D01*
X0031699Y0003816D01*
X0031532D01*
Y0003483D01*
X0031089Y0000295D02*
X0031255Y0000628D01*
X0031033D01*
X0030762Y0000462D02*
X0030845Y0000295D01*
X0030623Y0000462D02*
X0030790D01*
X0030845Y0000517D01*
Y0000573D01*
X0030790Y0000628D01*
X0030623D01*
Y0000295D01*
X0009404Y0001460D02*
X0009432Y0001515D01*
Y0001571D01*
X0009404Y0001627D01*
X0009238D01*
X0009210Y0001571D01*
Y0001515D01*
X0009238Y0001460D01*
X0009404D01*
X0009432Y0001404D01*
Y0001349D01*
X0009404Y0001293D01*
X0009238D01*
X0009210Y0001349D01*
Y0001404D01*
X0009238Y0001460D01*
X0008828Y0001404D02*
Y0001349D01*
X0008855Y0001293D01*
X0008967D01*
X0008966D02*
X0008994Y0001349D01*
Y0001627D01*
X0009022D02*
X0008911D01*
X0004577Y0010801D02*
X0004633Y0010745D01*
X0004744D01*
X0004799Y0010801D01*
Y0010856D01*
X0004688Y0010967D01*
X0004799Y0011078D01*
X0004577D01*
X0004278Y0010856D02*
X0004389Y0010745D01*
X0004167Y0010801D02*
X0004195Y0010745D01*
X0004306D01*
X0004334Y0010801D01*
X0004389Y0010856D01*
Y0011023D01*
X0004362Y0011078D01*
X0004195D01*
X0004167Y0011023D01*
Y0010801D01*
X0005099Y0015045D02*
X0004877D01*
X0005099Y0015267D01*
Y0015323D01*
X0005072Y0015378D01*
X0004905D01*
X0004877Y0015323D01*
X0004578Y0015156D02*
X0004689Y0015045D01*
X0004467Y0015101D02*
X0004495Y0015045D01*
X0004606D01*
X0004634Y0015101D01*
X0004689Y0015156D01*
Y0015323D01*
X0004662Y0015378D01*
X0004495D01*
X0004467Y0015323D01*
Y0015101D01*
X0057282Y0015131D02*
X0057115D01*
X0057088Y0015186D01*
Y0015242D01*
X0057115Y0015297D01*
X0057282D01*
X0057310Y0015242D01*
Y0015186D01*
X0057199Y0014964D01*
X0056900Y0015297D02*
Y0015019D01*
X0056872Y0014964D01*
X0056705D01*
X0056678Y0015019D01*
Y0015297D01*
X0033409Y0014630D02*
X0033592D01*
X0033623Y0014569D01*
Y0014508D01*
X0033592Y0014446D01*
X0033409D01*
X0033379Y0014508D01*
Y0014569D01*
X0033501Y0014813D01*
X0033188D02*
Y0014508D01*
X0033157Y0014446D01*
X0032974D01*
X0032944Y0014508D01*
Y0014813D01*
X0062640Y0014446D02*
X0062823Y0014813D01*
X0062579D01*
X0062388D02*
Y0014508D01*
X0062357Y0014446D01*
X0062174D01*
X0062144Y0014508D01*
Y0014813D01*
X0051422Y0009897D02*
X0051449Y0009841D01*
X0051616D01*
X0051644Y0009897D01*
Y0010008D01*
X0051588Y0010063D01*
X0051422D01*
Y0010174D01*
X0051644D01*
X0051039Y0009841D02*
Y0010174D01*
X0051012Y0009841D02*
X0051178D01*
X0051234Y0009952D01*
Y0010063D01*
X0051178Y0010174D01*
X0051012D01*
X0087539Y0007745D02*
X0087428D01*
X0087483D02*
Y0008078D01*
X0087428Y0008023D01*
X0086990Y0007745D02*
Y0008078D01*
X0086962Y0007745D02*
X0087129D01*
X0087184Y0007856D01*
Y0007967D01*
X0087129Y0008078D01*
X0086962D01*
X0041850Y0009852D02*
X0041628D01*
X0041739Y0010074D01*
X0041794D01*
Y0009741D01*
X0041245D02*
Y0010074D01*
X0041218Y0009741D02*
X0041384D01*
X0041440Y0009852D01*
Y0009963D01*
X0041384Y0010074D01*
X0041218D01*
X0032754Y0015695D02*
X0032643D01*
X0032699D02*
Y0016028D01*
X0032643Y0015973D01*
X0032400Y0015695D02*
X0032289D01*
X0032344D02*
Y0016028D01*
X0032289Y0015973D01*
X0032045Y0015750D02*
X0032018Y0015695D01*
X0031851D01*
X0031823Y0015750D01*
Y0015973D01*
X0031851Y0016028D01*
X0032018D01*
X0032045Y0015973D01*
X0038910Y0016095D02*
X0038687D01*
X0038910Y0016317D01*
Y0016373D01*
X0038882Y0016428D01*
X0038715D01*
X0038687Y0016373D01*
X0038500Y0016095D02*
X0038389D01*
X0038444D02*
Y0016428D01*
X0038389Y0016373D01*
X0038145Y0016150D02*
X0038118Y0016095D01*
X0037951D01*
X0037923Y0016150D01*
Y0016373D01*
X0037951Y0016428D01*
X0038118D01*
X0038145Y0016373D01*
X0047233Y0001550D02*
X0047289Y0001495D01*
X0047400D01*
X0047455Y0001550D01*
Y0001606D01*
X0047344Y0001717D01*
X0047455Y0001828D01*
X0047233D01*
X0046962Y0001662D02*
X0047045Y0001495D01*
X0046823Y0001662D02*
X0046990D01*
X0047045Y0001717D01*
Y0001773D01*
X0046990Y0001828D01*
X0046823D01*
Y0001495D01*
X0005271Y0003695D02*
X0005215Y0003750D01*
X0005187Y0003806D01*
Y0003917D01*
X0005215Y0003973D01*
X0005271Y0004028D01*
X0005326D01*
X0005382Y0003973D01*
X0005410Y0003917D01*
Y0003806D01*
X0005382Y0003750D01*
X0005326Y0003695D01*
X0005271D01*
X0005000D02*
X0004889D01*
X0004944D02*
Y0004028D01*
X0004889Y0003973D01*
X0004562Y0003862D02*
X0004645Y0003695D01*
X0004423Y0003862D02*
X0004590D01*
X0004645Y0003917D01*
Y0003973D01*
X0004590Y0004028D01*
X0004423D01*
Y0003695D01*
X0025562Y0005196D02*
X0025617Y0005252D01*
Y0005363D01*
X0025562Y0005419D01*
X0025506D01*
X0025395Y0005308D01*
X0025284Y0005419D01*
Y0005196D01*
X0025617Y0005009D02*
Y0004898D01*
Y0004953D02*
X0025284D01*
X0025339Y0004898D01*
X0025451Y0004571D02*
X0025617Y0004654D01*
X0025451Y0004432D02*
Y0004599D01*
X0025395Y0004654D01*
X0025339D01*
X0025284Y0004599D01*
Y0004432D01*
X0025617D01*
X0091744Y0006959D02*
X0091689Y0007015D01*
X0091661Y0007070D01*
Y0007181D01*
X0091689Y0007237D01*
X0091744Y0007293D01*
X0091800D01*
X0091855Y0007237D01*
X0091883Y0007181D01*
Y0007070D01*
X0091855Y0007015D01*
X0091800Y0006959D01*
X0091744D01*
X0091473D02*
X0091362D01*
X0091418D02*
Y0007293D01*
X0091362Y0007237D01*
X0091119Y0007015D02*
X0091091Y0006959D01*
X0090924D01*
X0090896Y0007015D01*
Y0007237D01*
X0090924Y0007293D01*
X0091091D01*
X0091119Y0007237D01*
X0017206Y0006719D02*
Y0006496D01*
X0016984Y0006608D01*
Y0006663D01*
X0017317D01*
Y0006309D02*
Y0006198D01*
Y0006253D02*
X0016984D01*
X0017039Y0006198D01*
X0017151Y0005871D02*
X0017317Y0005954D01*
X0017151Y0005732D02*
Y0005899D01*
X0017095Y0005954D01*
X0017039D01*
X0016984Y0005899D01*
Y0005732D01*
X0017317D01*
X0046094Y0002011D02*
X0046260D01*
X0046288Y0001955D01*
Y0001900D01*
X0046260Y0001844D01*
X0046094D01*
X0046066Y0001900D01*
Y0001955D01*
X0046177Y0002178D01*
X0045684Y0001955D02*
Y0001900D01*
X0045712Y0001844D01*
X0045823D01*
X0045850Y0001900D01*
Y0002178D01*
X0045878D02*
X0045767D01*
X0016072Y0004066D02*
X0016238D01*
X0016266Y0004010D01*
Y0003955D01*
X0016238Y0003899D01*
X0016072D01*
X0016044Y0003955D01*
Y0004010D01*
X0016155Y0004233D01*
X0015745Y0004010D02*
X0015856Y0003899D01*
X0015634Y0003955D02*
X0015662Y0003899D01*
X0015773D01*
X0015801Y0003955D01*
X0015856Y0004010D01*
Y0004177D01*
X0015828Y0004233D01*
X0015662D01*
X0015634Y0004177D01*
Y0003955D01*
X0057396Y0016038D02*
X0057424Y0015983D01*
X0057591D01*
X0057619Y0016038D01*
Y0016149D01*
X0057563Y0016205D01*
X0057396D01*
Y0016316D01*
X0057619D01*
X0057209Y0015983D02*
X0057098D01*
X0057153D02*
Y0016316D01*
X0057098Y0016260D01*
X0056854Y0016038D02*
X0056827Y0015983D01*
X0056660D01*
X0056632Y0016038D01*
Y0016260D01*
X0056660Y0016316D01*
X0056827D01*
X0056854Y0016260D01*
X0031861Y0006362D02*
X0032028D01*
X0032055Y0006306D01*
Y0006250D01*
X0032028Y0006195D01*
X0031861D01*
X0031833Y0006250D01*
Y0006306D01*
X0031944Y0006528D01*
X0031562Y0006362D02*
X0031645Y0006195D01*
X0031423Y0006362D02*
X0031590D01*
X0031645Y0006417D01*
Y0006473D01*
X0031590Y0006528D01*
X0031423D01*
Y0006195D01*
X0030388Y0004310D02*
X0030416Y0004365D01*
Y0004421D01*
X0030388Y0004477D01*
X0030222D01*
X0030194Y0004421D01*
Y0004365D01*
X0030222Y0004310D01*
X0030388D01*
X0030416Y0004254D01*
Y0004199D01*
X0030388Y0004143D01*
X0030222D01*
X0030194Y0004199D01*
Y0004254D01*
X0030222Y0004310D01*
X0029923D02*
X0030006Y0004143D01*
X0029784Y0004310D02*
X0029950D01*
X0030006Y0004365D01*
Y0004421D01*
X0029950Y0004477D01*
X0029784D01*
Y0004143D01*
X0056017Y0004336D02*
X0055833D01*
X0055803Y0004397D01*
Y0004458D01*
X0055833Y0004519D01*
X0056017D01*
X0056047Y0004458D01*
Y0004397D01*
X0055925Y0004153D01*
X0055612D02*
X0055490D01*
X0055551D02*
Y0004519D01*
X0055490Y0004458D01*
X0055086Y0004153D02*
X0055024Y0004214D01*
X0054994Y0004275D01*
Y0004397D01*
X0055024Y0004458D01*
X0055086Y0004519D01*
X0055147D01*
X0055208Y0004458D01*
X0055238Y0004397D01*
Y0004275D01*
X0055208Y0004214D01*
X0055147Y0004153D01*
X0055086D01*
X0054803D02*
X0054559D01*
X0054803Y0004397D01*
Y0004458D01*
X0054773Y0004519D01*
X0054589D01*
X0054559Y0004458D01*
X0053734Y0004519D02*
Y0004520D01*
X0053735D01*
Y0004519D01*
X0053734D01*
X0053796Y0004153D02*
X0053674D01*
X0053735D02*
Y0004397D01*
X0053674D01*
X0053453Y0004153D02*
Y0004336D01*
X0053422Y0004397D01*
X0053239D01*
Y0004153D01*
X0052834D02*
X0052804Y0004214D01*
Y0004336D01*
X0052834Y0004397D01*
X0053018D01*
X0053048Y0004336D01*
Y0004214D01*
X0053018Y0004153D01*
X0052834D01*
X0052583Y0004397D02*
X0052399D01*
X0052369Y0004336D01*
X0052399Y0004275D01*
X0052583D01*
X0052613Y0004214D01*
X0052583Y0004153D01*
X0052399D01*
X0052148Y0004397D02*
X0051964D01*
X0051934Y0004336D01*
X0051964Y0004275D01*
X0052148D01*
X0052178Y0004214D01*
X0052148Y0004153D01*
X0051964D01*
X0051713D02*
X0051529D01*
X0051499Y0004214D01*
Y0004336D01*
X0051529Y0004397D01*
X0051713D01*
X0051743Y0004336D01*
Y0004275D01*
X0051499D01*
X0051308Y0004397D02*
X0051186D01*
X0051156Y0004336D01*
X0051094D01*
Y0004397D02*
Y0004153D01*
X0050904Y0004214D02*
X0050873Y0004153D01*
X0050690D01*
X0050659Y0004214D01*
Y0004458D01*
X0050690Y0004519D01*
X0050873D01*
X0050904Y0004458D01*
X0049896Y0004153D02*
X0049713D01*
X0049744Y0004214D01*
X0049866Y0004336D01*
X0049896Y0004397D01*
X0049713D01*
X0049461Y0004519D02*
Y0004520D01*
X0049462D01*
Y0004519D01*
X0049461D01*
X0049523Y0004153D02*
X0049400D01*
X0049461D02*
Y0004397D01*
X0049400D01*
X0049149D02*
Y0004153D01*
X0049179D02*
X0048965D01*
X0048935Y0004214D01*
Y0004397D01*
X0048744Y0004153D02*
X0048530D01*
Y0004519D01*
X0055198Y0004753D02*
X0055076D01*
X0055137D02*
Y0005119D01*
X0055076Y0005058D01*
X0054763Y0004753D02*
X0054824D01*
Y0004814D01*
X0054763D01*
Y0004753D01*
X0054511D02*
X0054389D01*
X0054450D02*
Y0005119D01*
X0054389Y0005058D01*
X0053443Y0004875D02*
X0053382D01*
X0053565Y0004753D02*
X0053443Y0004875D01*
X0053565Y0004997D01*
X0053382Y0004753D02*
Y0005119D01*
X0053161Y0004997D02*
X0052977D01*
X0052947Y0004936D01*
Y0004814D01*
X0052977Y0004753D01*
X0053161D01*
X0052542D02*
X0052512Y0004814D01*
Y0004936D01*
X0052542Y0004997D01*
X0052726D01*
X0052756Y0004936D01*
Y0004814D01*
X0052726Y0004753D01*
X0052542D01*
X0052321D02*
X0052199D01*
X0052260D02*
Y0005119D01*
X0052199D01*
X0051978Y0004814D02*
X0051947Y0004753D01*
X0051764D01*
X0051733Y0004814D01*
Y0005058D01*
X0051764Y0005119D01*
X0051947D01*
X0051978Y0005058D01*
X0050940Y0004753D02*
X0050756D01*
X0050726Y0004814D01*
Y0004936D01*
X0050756Y0004997D01*
X0050940D01*
X0050970Y0004936D01*
Y0004875D01*
X0050726D01*
X0050474Y0005119D02*
Y0005120D01*
X0050475D01*
Y0005119D01*
X0050474D01*
X0050535Y0004753D02*
X0050413D01*
X0050474D02*
Y0004997D01*
X0050413D01*
X0050192D02*
X0050162Y0004936D01*
X0050039Y0004814D01*
X0050009Y0004753D01*
X0050192D02*
X0050162Y0004814D01*
X0050039Y0004936D01*
X0050009Y0004997D01*
X0049757Y0005119D02*
Y0005120D01*
Y0005119D01*
X0049818Y0004753D02*
X0049696D01*
X0049757D02*
Y0004997D01*
X0049696D01*
X0049475Y0005119D02*
Y0004753D01*
X0049414Y0004814D01*
X0049292Y0005058D01*
X0049230Y0005119D01*
Y0004753D01*
X0008527Y0000606D02*
X0008304D01*
X0008415Y0000828D01*
X0008471D01*
Y0000495D01*
X0007922Y0000606D02*
Y0000550D01*
X0007950Y0000495D01*
X0008061D01*
X0008089Y0000550D01*
Y0000828D01*
X0008117D02*
X0008005D01*
X0011128Y0004462D02*
X0010961D01*
X0010933Y0004517D01*
Y0004573D01*
X0010961Y0004628D01*
X0011128D01*
X0011155Y0004573D01*
Y0004517D01*
X0011044Y0004295D01*
X0010662Y0004462D02*
X0010745Y0004295D01*
X0010523Y0004462D02*
X0010690D01*
X0010745Y0004517D01*
Y0004573D01*
X0010690Y0004628D01*
X0010523D01*
Y0004295D01*
X0022166Y0004210D02*
X0021944D01*
X0022055Y0004433D01*
X0022111D01*
Y0004099D01*
X0021645Y0004210D02*
X0021756Y0004099D01*
X0021534Y0004155D02*
X0021562Y0004099D01*
X0021673D01*
X0021701Y0004155D01*
X0021756Y0004210D01*
Y0004377D01*
X0021728Y0004433D01*
X0021562D01*
X0021534Y0004377D01*
Y0004155D01*
X0043164Y0004183D02*
X0042942D01*
X0043164Y0004405D01*
Y0004460D01*
X0043137Y0004516D01*
X0042970D01*
X0042942Y0004460D01*
X0042671Y0004349D02*
X0042754Y0004183D01*
X0042532Y0004349D02*
X0042699D01*
X0042754Y0004405D01*
Y0004460D01*
X0042699Y0004516D01*
X0042532D01*
Y0004183D01*
X0084044Y0002067D02*
X0084155D01*
X0084100D02*
Y0001734D01*
X0084155Y0001790D01*
X0083219Y0002645D02*
X0083108D01*
X0083163D02*
Y0002978D01*
X0083108Y0002923D01*
X0082753Y0002645D02*
Y0002812D01*
X0082864Y0002978D02*
X0082781Y0002812D01*
X0082725D01*
X0082642Y0002978D01*
X0082232Y0002812D02*
X0082399D01*
X0082454Y0002867D01*
Y0002923D01*
X0082399Y0002978D01*
X0082232D01*
Y0002645D01*
X0081961Y0002812D02*
X0082044Y0002645D01*
X0081822Y0002812D02*
X0081989D01*
X0082044Y0002867D01*
Y0002923D01*
X0081989Y0002978D01*
X0081822D01*
Y0002645D01*
X0083133Y0016001D02*
X0083164Y0015939D01*
X0083347D01*
X0083378Y0016001D01*
Y0016123D01*
X0083316Y0016184D01*
X0083133D01*
Y0016306D01*
X0083378D01*
X0082943Y0015939D02*
X0082820D01*
X0082881D02*
Y0016306D01*
X0082820Y0016245D01*
X0082569Y0016306D02*
Y0016001D01*
X0082538Y0015939D01*
X0082355D01*
X0082324Y0016001D01*
Y0016306D01*
X0046578Y0016039D02*
X0046333D01*
X0046578Y0016284D01*
Y0016345D01*
X0046547Y0016406D01*
X0046364D01*
X0046333Y0016345D01*
X0046143Y0016039D02*
X0046020D01*
X0046081D02*
Y0016406D01*
X0046020Y0016345D01*
X0045769Y0016406D02*
Y0016101D01*
X0045738Y0016039D01*
X0045555D01*
X0045524Y0016101D01*
Y0016406D01*
X0012411Y0009941D02*
X0012188D01*
X0012411Y0010163D01*
Y0010219D01*
X0012383Y0010274D01*
X0012216D01*
X0012188Y0010219D01*
X0011806Y0009941D02*
Y0010274D01*
X0011778Y0009941D02*
X0011945D01*
X0012001Y0010052D01*
Y0010163D01*
X0011945Y0010274D01*
X0011778D01*
X0076151Y0006991D02*
X0076095Y0007019D01*
X0076039D01*
X0075984Y0006991D01*
Y0006824D01*
X0076039Y0006796D01*
X0076095D01*
X0076151Y0006824D01*
Y0006991D01*
X0076206Y0007019D01*
X0076262D01*
X0076317Y0006991D01*
Y0006824D01*
X0076262Y0006796D01*
X0076206D01*
X0076151Y0006824D01*
X0076317Y0006609D02*
Y0006498D01*
Y0006553D02*
X0075984D01*
X0076039Y0006498D01*
X0076151Y0006171D02*
X0076317Y0006254D01*
X0076151Y0006032D02*
Y0006199D01*
X0076095Y0006254D01*
X0076039D01*
X0075984Y0006199D01*
Y0006032D01*
X0076317D01*
X0021961Y0009897D02*
X0022017Y0009841D01*
X0022016D02*
X0022128D01*
X0022183Y0009897D01*
Y0009952D01*
X0022072Y0010063D01*
X0022183Y0010174D01*
X0021961D01*
X0021579Y0009841D02*
Y0010174D01*
X0021551Y0009841D02*
X0021718D01*
X0021773Y0009952D01*
Y0010063D01*
X0021718Y0010174D01*
X0021551D01*
X0047476Y0008310D02*
X0047643D01*
X0047670Y0008254D01*
Y0008199D01*
X0047643Y0008143D01*
X0047476D01*
X0047448Y0008199D01*
Y0008254D01*
X0047559Y0008477D01*
X0047260Y0008143D02*
X0047149D01*
X0047205D02*
Y0008477D01*
X0047149Y0008421D01*
X0046823Y0008310D02*
X0046906Y0008143D01*
X0046684Y0008310D02*
X0046850D01*
X0046906Y0008365D01*
Y0008421D01*
X0046850Y0008477D01*
X0046684D01*
Y0008143D01*
X0074217Y0006252D02*
X0073884Y0006419D01*
Y0006196D01*
X0074217Y0006009D02*
Y0005898D01*
Y0005953D02*
X0073884D01*
X0073939Y0005898D01*
X0074051Y0005571D02*
X0074217Y0005654D01*
X0074051Y0005432D02*
Y0005599D01*
X0073995Y0005654D01*
X0073939D01*
X0073884Y0005599D01*
Y0005432D01*
X0074217D01*
X0003335Y0012731D02*
X0003112D01*
X0003224Y0012953D01*
X0003279D01*
Y0012620D01*
X0002925D02*
X0002814D01*
X0002869D02*
Y0012953D01*
X0002814Y0012898D01*
X0002570Y0012675D02*
X0002543Y0012620D01*
X0002376D01*
X0002348Y0012675D01*
Y0012898D01*
X0002376Y0012953D01*
X0002543D01*
X0002570Y0012898D01*
X0085253Y0012587D02*
X0085086D01*
X0085058Y0012642D01*
Y0012698D01*
X0085086Y0012753D01*
X0085253D01*
X0085280Y0012698D01*
Y0012642D01*
X0085169Y0012420D01*
X0084870Y0012475D02*
X0084843Y0012420D01*
X0084676D01*
X0084648Y0012475D01*
Y0012698D01*
X0084676Y0012753D01*
X0084843D01*
X0084870Y0012698D01*
X0063587Y0015650D02*
X0063643Y0015595D01*
X0063754D01*
X0063810Y0015650D01*
Y0015706D01*
X0063699Y0015817D01*
X0063810Y0015928D01*
X0063587D01*
X0063400Y0015595D02*
X0063289D01*
X0063344D02*
Y0015928D01*
X0063289Y0015873D01*
X0063045Y0015650D02*
X0063018Y0015595D01*
X0062851D01*
X0062823Y0015650D01*
Y0015873D01*
X0062851Y0015928D01*
X0063018D01*
X0063045Y0015873D01*
X0041309Y0002133D02*
X0041476Y0002467D01*
X0041254D01*
X0040871Y0002244D02*
Y0002189D01*
X0040899Y0002133D01*
X0041010D01*
X0041038Y0002189D01*
Y0002467D01*
X0041066D02*
X0040955D01*
X0038311Y0004699D02*
X0038200D01*
X0038255D02*
Y0005033D01*
X0038200Y0004977D01*
X0037845Y0004810D02*
X0037956Y0004699D01*
X0037734Y0004755D02*
X0037762Y0004699D01*
X0037873D01*
X0037901Y0004755D01*
X0037956Y0004810D01*
Y0004977D01*
X0037928Y0005033D01*
X0037762D01*
X0037734Y0004977D01*
Y0004755D01*
X0092376Y0012564D02*
X0092265D01*
X0092321D02*
Y0012897D01*
X0092265Y0012842D01*
X0092022Y0012564D02*
X0091828D01*
Y0012897D01*
X0089460Y0005725D02*
X0089238D01*
X0089349Y0005947D01*
X0089404D01*
Y0005614D01*
X0089050Y0005947D02*
Y0005669D01*
X0089022Y0005614D01*
X0088855D01*
X0088828Y0005669D01*
Y0005947D01*
X0071137Y0010108D02*
X0071304D01*
X0071332Y0010052D01*
Y0009997D01*
X0071304Y0009941D01*
X0071137D01*
X0071110Y0009997D01*
Y0010052D01*
X0071221Y0010274D01*
X0070727Y0009941D02*
Y0010274D01*
X0070700Y0009941D02*
X0070866D01*
X0070922Y0010052D01*
Y0010163D01*
X0070866Y0010274D01*
X0070700D01*
X0080938Y0009941D02*
X0081105Y0010274D01*
X0080882D01*
X0080500Y0009941D02*
Y0010274D01*
X0080472Y0009941D02*
X0080639D01*
X0080695Y0010052D01*
Y0010163D01*
X0080639Y0010274D01*
X0080472D01*
X0027910Y0004749D02*
X0027743D01*
X0027715Y0004805D01*
Y0004860D01*
X0027743Y0004916D01*
X0027910D01*
X0027938Y0004860D01*
Y0004805D01*
X0027826Y0004583D01*
X0027333Y0004694D02*
Y0004638D01*
X0027361Y0004583D01*
X0027472D01*
X0027500Y0004638D01*
Y0004916D01*
X0027528D02*
X0027416D01*
X0026716Y0015939D02*
X0026594D01*
X0026655D02*
Y0016306D01*
X0026594Y0016245D01*
X0026343Y0015939D02*
X0026220D01*
X0026281D02*
Y0016306D01*
X0026220Y0016245D01*
X0025969Y0016306D02*
Y0016001D01*
X0025938Y0015939D01*
X0025755D01*
X0025724Y0016001D01*
Y0016306D01*
X0074578Y0016062D02*
X0074333D01*
X0074455Y0016306D01*
X0074516D01*
Y0015939D01*
X0074143D02*
X0074020D01*
X0074081D02*
Y0016306D01*
X0074020Y0016245D01*
X0073769Y0016306D02*
Y0016001D01*
X0073738Y0015939D01*
X0073555D01*
X0073524Y0016001D01*
Y0016306D01*
X0008355Y0011106D02*
X0008133D01*
X0008244Y0011328D01*
X0008300D01*
Y0010995D01*
X0007862Y0011162D02*
X0007945Y0010995D01*
X0007723Y0011162D02*
X0007890D01*
X0007945Y0011217D01*
Y0011273D01*
X0007890Y0011328D01*
X0007723D01*
Y0010995D01*
X0055033Y0016201D02*
X0055094Y0016139D01*
X0055216D01*
X0055278Y0016201D01*
Y0016262D01*
X0055155Y0016384D01*
X0055278Y0016506D01*
X0055033D01*
X0054843Y0016139D02*
X0054720D01*
X0054781D02*
Y0016506D01*
X0054720Y0016445D01*
X0054469Y0016506D02*
Y0016201D01*
X0054438Y0016139D01*
X0054255D01*
X0054224Y0016201D01*
Y0016506D01*
X0062066Y0004742D02*
X0062097Y0004803D01*
Y0004864D01*
X0062066Y0004925D01*
X0061883D01*
X0061852Y0004864D01*
Y0004803D01*
X0061883Y0004742D01*
X0062066D01*
X0062097Y0004681D01*
Y0004620D01*
X0062066Y0004559D01*
X0061883D01*
X0061852Y0004620D01*
Y0004681D01*
X0061883Y0004742D01*
X0061662Y0004925D02*
Y0004620D01*
X0061631Y0004559D01*
X0061448D01*
X0061417Y0004620D01*
Y0004925D01*
X0017025Y0015939D02*
X0016964Y0016001D01*
X0016933Y0016062D01*
Y0016184D01*
X0016964Y0016245D01*
X0017025Y0016306D01*
X0017086D01*
X0017147Y0016245D01*
X0017178Y0016184D01*
Y0016062D01*
X0017147Y0016001D01*
X0017086Y0015939D01*
X0017025D01*
X0016743D02*
X0016620D01*
X0016681D02*
Y0016306D01*
X0016620Y0016245D01*
X0016369Y0016306D02*
Y0016001D01*
X0016338Y0015939D01*
X0016155D01*
X0016124Y0016001D01*
Y0016306D01*
X0028379Y0015108D02*
X0028409Y0015046D01*
X0028592D01*
X0028623Y0015108D01*
Y0015230D01*
X0028562Y0015291D01*
X0028379D01*
Y0015413D01*
X0028623D01*
X0028188D02*
Y0015108D01*
X0028157Y0015046D01*
X0027974D01*
X0027944Y0015108D01*
Y0015413D01*
X0034800Y0007100D02*
X0036800D01*
Y0015100D01*
X0034800D01*
Y0007100D01*
X0036300Y0015100D02*
Y0014850D01*
X0035300D01*
Y0015100D01*
X0063000Y0006400D02*
X0065000D01*
Y0014400D01*
X0063000D01*
Y0006400D01*
X0064500Y0014400D02*
Y0014150D01*
X0063500D01*
Y0014400D01*
X0005750Y0012400D02*
X0007250D01*
Y0011400D01*
X0005750D01*
Y0012400D01*
X0005375Y0011900D02*
X0005750D01*
X0007625D02*
X0007250D01*
X0048550Y0001400D02*
X0050050D01*
Y0000400D01*
X0048550D01*
Y0001400D01*
X0048175Y0000900D02*
X0048550D01*
X0050425D02*
X0050050D01*
X0037400Y0004500D02*
Y0000300D01*
X0036850D02*
Y0004500D01*
X0039100D01*
Y0000300D01*
X0036850D01*
X0016700Y0007350D02*
Y0005850D01*
X0015700D01*
Y0007350D01*
X0016700D01*
X0016200Y0007725D02*
Y0007350D01*
Y0005475D02*
Y0005850D01*
X0048650Y0003500D02*
X0050150D01*
Y0002500D01*
X0048650D01*
Y0003500D01*
X0048275Y0003000D02*
X0048650D01*
X0050525D02*
X0050150D01*
X0004300Y0005600D02*
X0008500D01*
Y0005050D02*
X0004300D01*
Y0007300D01*
X0008500D01*
Y0005050D01*
X0002900Y0008250D02*
Y0006750D01*
X0001900D01*
Y0008250D01*
X0002900D01*
X0002400Y0008625D02*
Y0008250D01*
Y0006375D02*
Y0006750D01*
X0033150Y0002300D02*
X0031650D01*
Y0003300D01*
X0033150D01*
Y0002300D01*
X0033525Y0002800D02*
X0033150D01*
X0031275D02*
X0031650D01*
Y0001700D02*
X0033150D01*
Y0000700D01*
X0031650D01*
Y0001700D01*
X0031275Y0001200D02*
X0031650D01*
X0033525D02*
X0033150D01*
X0004300Y0008900D02*
X0008500D01*
Y0008350D02*
X0004300D01*
Y0010600D01*
X0008500D01*
Y0008350D01*
X0004500Y0013200D02*
X0008700D01*
Y0012650D02*
X0004500D01*
Y0014900D01*
X0008700D01*
Y0012650D01*
X0005350Y0003500D02*
X0006850D01*
Y0002500D01*
X0005350D01*
Y0003500D01*
X0004975Y0003000D02*
X0005350D01*
X0007225D02*
X0006850D01*
X0026800Y0006050D02*
Y0004550D01*
X0025800D01*
Y0006050D01*
X0026800D01*
X0026300Y0006425D02*
Y0006050D01*
Y0004175D02*
Y0004550D01*
X0018500Y0007350D02*
Y0005850D01*
X0017500D01*
Y0007350D01*
X0018500D01*
X0018000Y0007725D02*
Y0007350D01*
Y0005475D02*
Y0005850D01*
X0017000Y0004500D02*
Y0000300D01*
X0016450D02*
Y0004500D01*
X0018700D01*
Y0000300D01*
X0016450D01*
X0058575Y0015750D02*
X0058825D01*
Y0016250D02*
X0058575D01*
X0032450Y0006000D02*
X0033950D01*
Y0005000D01*
X0032450D01*
Y0006000D01*
X0032075Y0005500D02*
X0032450D01*
X0034325D02*
X0033950D01*
X0029600Y0003450D02*
Y0001950D01*
X0028600D01*
Y0003450D01*
X0029600D01*
X0029100Y0003825D02*
Y0003450D01*
Y0001575D02*
Y0001950D01*
X0011650Y0004100D02*
X0013150D01*
Y0003100D01*
X0011650D01*
Y0004100D01*
X0011275Y0003600D02*
X0011650D01*
X0013525D02*
X0013150D01*
X0022800Y0004500D02*
Y0000300D01*
X0022250D02*
Y0004500D01*
X0024500D01*
Y0000300D01*
X0022250D01*
X0044150Y0003000D02*
X0042650D01*
Y0004000D01*
X0044150D01*
Y0003000D01*
X0044525Y0003500D02*
X0044150D01*
X0042275D02*
X0042650D01*
X0075800Y0014700D02*
Y0012700D01*
X0083800D01*
Y0014700D01*
X0075800D01*
X0083800Y0013200D02*
X0083550D01*
Y0014200D01*
X0083800D01*
X0038800Y0014900D02*
Y0012900D01*
X0046800D01*
Y0014900D01*
X0038800D01*
X0046800Y0013400D02*
X0046550D01*
Y0014400D01*
X0046800D01*
X0077500Y0007650D02*
Y0006150D01*
X0076500D01*
Y0007650D01*
X0077500D01*
X0077000Y0008025D02*
Y0007650D01*
Y0005775D02*
Y0006150D01*
X0047000Y0006850D02*
Y0005350D01*
X0046000D01*
Y0006850D01*
X0047000D01*
X0046500Y0007225D02*
Y0006850D01*
Y0004975D02*
Y0005350D01*
X0075400Y0007050D02*
Y0005550D01*
X0074400D01*
Y0007050D01*
X0075400D01*
X0074900Y0007425D02*
Y0007050D01*
Y0005175D02*
Y0005550D01*
X0018900Y0014700D02*
Y0012700D01*
X0026900D01*
Y0014700D01*
X0018900D01*
X0026900Y0013200D02*
X0026650D01*
Y0014200D01*
X0026900D01*
X0066900Y0014700D02*
Y0012700D01*
X0074900D01*
Y0014700D01*
X0066900D01*
X0074900Y0013200D02*
X0074650D01*
Y0014200D01*
X0074900D01*
X0047600Y0014900D02*
Y0012900D01*
X0055600D01*
Y0014900D01*
X0047600D01*
X0055600Y0013400D02*
X0055350D01*
Y0014400D01*
X0055600D01*
X0060200Y0012500D02*
X0058200D01*
Y0004500D01*
X0060200D01*
Y0012500D01*
X0058700Y0004500D02*
Y0004750D01*
X0059700D01*
Y0004500D01*
X0009500Y0014700D02*
Y0012700D01*
X0017500D01*
Y0014700D01*
X0009500D01*
X0017500Y0013200D02*
X0017250D01*
Y0014200D01*
X0017500D01*
X0028800Y0007000D02*
X0030800D01*
Y0015000D01*
X0028800D01*
Y0007000D01*
X0030300Y0015000D02*
Y0014750D01*
X0029300D01*
Y0015000D01*
X0045400Y0002400D02*
X0044400D01*
Y0000400D01*
X0045400D01*
Y0002400D01*
X0041600Y0000500D02*
X0042600D01*
Y0002500D01*
X0041600D01*
Y0000500D01*
X0029500Y0005200D02*
Y0006200D01*
X0027500D01*
Y0005200D01*
X0029500D01*
X0005800Y0001500D02*
Y0000500D01*
X0007800D01*
Y0001500D01*
X0005800D01*
X0008100Y0015500D02*
Y0016500D01*
X0006100D01*
Y0015500D01*
X0008100D01*
X0063400Y0002400D02*
Y0000400D01*
X0083850D01*
Y0002400D01*
X0063400D01*
X0065025Y0015950D02*
X0064775D01*
Y0015450D02*
X0065025D01*
X0030825Y0016150D02*
X0030575D01*
Y0015650D02*
X0030825D01*
X0036925Y0016350D02*
X0036675D01*
Y0015850D02*
X0036925D01*
G01X0058875Y0014650D02*
G03X0059025Y0014800I0000000J0000150D01*
G01X0058725D02*
G03X0058875Y0014650I0000150J0000000D01*
Y0014950D02*
G03X0058725Y0014800I0000000J0000150D01*
G01X0059025D02*
G03X0058875Y0014950I0000150J0000000D01*
G01X0003300Y0011400D02*
G03X0002300Y0012400I0001000J0000000D01*
G03X0001300Y0011400I0000000J0001000D01*
G03X0002300Y0010400I0001000J0000000D01*
G03X0003300Y0011400I0000000J0001000D01*
G01X0091400Y0006800D02*
G03X0090150Y0005550I0000000J0001250D01*
G03X0091400Y0004300I0001250J0000000D01*
G03X0092650Y0005550I0000000J0001250D01*
G03X0091400Y0006800I0001250J0000000D01*
G01X0086600Y0011300D02*
G03X0085600Y0012300I0001000J0000000D01*
G03X0084600Y0011300I0000000J0001000D01*
G03X0085600Y0010300I0001000J0000000D01*
G03X0086600Y0011300I0000000J0001000D01*
G54D50*
G01X0041615Y0005792D02*
G03X0044373Y0008550I0000000J0002758D01*
G01X0038857D02*
G03X0041615Y0005792I0002758J0000000D01*
Y0011307D02*
G03X0038858Y0008550I0000000J0002757D01*
G01X0044372D02*
G03X0041615Y0011307I0002757J0000000D01*
G01X0080830Y0005793D02*
G03X0083587Y0008550I0000000J0002757D01*
G01X0078073D02*
G03X0080830Y0005793I0002757J0000000D01*
Y0011307D02*
G03X0078073Y0008550I0000000J0002757D01*
G01X0083587D02*
G03X0080830Y0011307I0002757J0000000D01*
G01X0070997Y0005792D02*
G03X0073755Y0008550I0000000J0002758D01*
G01X0068239D02*
G03X0070997Y0005792I0002758J0000000D01*
Y0011307D02*
G03X0068240Y0008550I0000000J0002757D01*
G01X0073754D02*
G03X0070997Y0011307I0002757J0000000D01*
G01X0021948Y0005793D02*
G03X0024705Y0008550I0000000J0002757D01*
G01X0019191D02*
G03X0021948Y0005793I0002757J0000000D01*
Y0011307D02*
G03X0019191Y0008550I0000000J0002757D01*
G01X0024705D02*
G03X0021948Y0011307I0002757J0000000D01*
G01X0051409Y0005792D02*
G03X0054167Y0008550I0000000J0002758D01*
G01X0048651D02*
G03X0051409Y0005792I0002758J0000000D01*
Y0011307D02*
G03X0048652Y0008550I0000000J0002757D01*
G01X0054166D02*
G03X0051409Y0011307I0002757J0000000D01*
G01X0012075Y0005793D02*
G03X0014832Y0008550I0000000J0002757D01*
G01X0009318D02*
G03X0012075Y0005793I0002757J0000000D01*
Y0011307D02*
G03X0009318Y0008550I0000000J0002757D01*
G01X0014832D02*
G03X0012075Y0011307I0002757J0000000D01*
G54D51*
G01X0088245Y0014844D02*
X0088300Y0014789D01*
X0088411D01*
X0088467Y0014844D01*
Y0014900D01*
X0088356Y0015011D01*
X0088467Y0015122D01*
X0088245D01*
X0087903Y0014900D02*
Y0014844D01*
X0087930Y0014789D01*
X0088042D01*
X0088041D02*
X0088069Y0014844D01*
Y0015122D01*
X0088097D02*
X0087986D01*
X0087492Y0008209D02*
Y0009391D01*
X0085000D01*
Y0008209D01*
X0087492D01*
X0088000Y0012400D02*
X0087750Y0012150D01*
Y0007650D01*
X0088000Y0007400D01*
X0092500D01*
X0092750Y0007650D01*
Y0012150D01*
X0092500Y0012400D01*
X0088000D01*
X0057625Y0014940D02*
X0057405Y0015160D01*
Y0014720D01*
X0057615Y0014930D01*
X0058675Y0013200D02*
X0059925D01*
Y0015200D01*
X0059550D01*
Y0015100D01*
X0059050D02*
Y0015200D01*
X0058675D01*
Y0013200D01*
X0009500Y0000600D02*
Y0001400D01*
X0012500D01*
Y0000600D01*
X0009500D01*
G01X0059300Y0014900D02*
G03X0059550Y0015100I0000000J0000256D01*
G01X0059050D02*
G03X0059300Y0014900I0000250J0000056D01*
G54D52*
G01X0044059Y0010905D02*
X0044146Y0010817D01*
X0044321D01*
X0044409Y0010905D01*
Y0010992D01*
X0044234Y0011167D01*
X0044409Y0011342D01*
X0044059D01*
X0043819D02*
Y0011167D01*
X0043644Y0010817D01*
X0043469Y0011167D01*
Y0011342D01*
X0083357Y0011119D02*
X0083620D01*
X0083664Y0011032D01*
Y0010944D01*
X0083620Y0010857D01*
X0083357D01*
X0083314Y0010944D01*
Y0011032D01*
X0083489Y0011381D01*
X0083073D02*
Y0011206D01*
X0082898Y0010857D01*
X0082723Y0011206D01*
Y0011381D01*
X0073441Y0010905D02*
X0073485Y0010817D01*
X0073747D01*
X0073791Y0010905D01*
Y0011080D01*
X0073703Y0011167D01*
X0073441D01*
Y0011342D01*
X0073791D01*
X0073201D02*
Y0011167D01*
X0073026Y0010817D01*
X0072851Y0011167D01*
Y0011342D01*
X0024742Y0010817D02*
X0024392D01*
X0024742Y0011167D01*
Y0011255D01*
X0024698Y0011342D01*
X0024436D01*
X0024392Y0011255D01*
X0024152Y0011342D02*
Y0011167D01*
X0023977Y0010817D01*
X0023802Y0011167D01*
Y0011342D01*
X0054203Y0010953D02*
X0053853D01*
X0054028Y0011303D01*
X0054115D01*
Y0010778D01*
X0053613Y0011303D02*
Y0011128D01*
X0053438Y0010778D01*
X0053263Y0011128D01*
Y0011303D01*
X0014939Y0010817D02*
X0014764D01*
X0014852D02*
Y0011342D01*
X0014764Y0011255D01*
X0014437Y0011342D02*
Y0011167D01*
X0014262Y0010817D01*
X0014087Y0011167D01*
Y0011342D01*
X0087295Y0009292D02*
X0087394D01*
Y0008307D01*
X0087295D01*
G54D53*
G01X0089200Y0000650D02*
Y0000400D01*
X0084450D01*
Y0005400D01*
X0089200D01*
Y0000650D01*
M02*
